<?xml version="1.0" encoding="UTF-8"?>
<svg id="Layer_1" xmlns="http://www.w3.org/2000/svg" version="1.1" viewBox="0 0 704.79 1343.04">
  <!-- Generator: Adobe Illustrator 30.0.0, SVG Export Plug-In . SVG Version: 2.1.1 Build 123)  -->
  <defs>
    <style>
      .st0 {
        fill: #231f20;
      }
    </style>
  </defs>
  <path class="st0" d="M388.05,1001.69l.03,250.19c0,42.79-18.83,42.79-28.94,42.79-6.16,0-11.2-.91-14.98-2.72-3.17-1.51-5.44-3.53-7.15-6.38-2.35-3.91-4.06-8.39-5.07-13.33-1.16-5.63-1.74-12.49-1.75-20.37l-.03-250.19h-47.45l.03,249.83c0,12.51,1.09,23.82,3.24,33.62,2.29,10.46,6.17,20.1,11.52,28.66,6.04,9.67,14.62,17.12,25.5,22.16,10.15,4.7,22.3,7.08,36.13,7.08,25.14,0,44.58-8.36,57.77-24.85,12.35-15.43,18.61-37.87,18.61-66.68l-.03-249.82h-47.44Z"/>
  <path class="st0" d="M534.95,300.54c3.87,9.32,9.06,17.29,15.37,23.69,6.44,6.54,14.72,11.69,24.51,15.31,9.39,3.47,20.24,5.23,32.24,5.23,15.13,0,28.31-2.63,39.19-7.81,11.58-5.5,20.66-13.71,27.01-24.39,5.76-9.68,10.62-20.58,13.06-32.41,2.31-11.24,4.19-24.44,4.19-39.24V107.16c0-14.73-1.98-28.02-4.5-39.51-2.65-12.07-7.39-23.02-13.38-32.53-6.53-10.36-15.8-18.35-27.22-23.74-10.82-5.1-23.76-7.69-38.28-7.69s-27.4,2.59-38.17,7.71c-11.34,5.39-20.41,13.37-26.94,23.72-5.98,9.51-10.46,20.46-13.12,32.53-2.52,11.49-3.89,24.77-3.89,39.51v133.76c0,11.62.8,22.27,2.2,31.63,1.46,9.85,4.08,19.27,7.72,27.99ZM580.88,58.95c2.95-5.21,8.45-12.13,24.42-12.13s22.39,6.86,25.3,12.02c5.67,10.08,5.7,26.62,5.7,46.41v140.4c0,19.81-.17,33.64-5.87,43.85-2.92,5.22-9.26,12.16-25.34,12.16-6.53,0-12-1.22-16.21-3.62-3.89-2.23-6.8-5.4-9.05-9.69-2.76-5.23-3.45-35.52-3.45-45.07V102.87c0-19.66-1.23-33.78,4.5-43.92Z"/>
  <rect class="st0" x="225.42" y="8.15" width="45.65" height="330.99"/>
  <path class="st0" d="M373.8,202.18h29.75l37.49,142.67h48.35l-45.03-159.22c2.92-1.21,5.68-2.73,8.31-4.35,6.88-4.24,12.52-9.23,16.77-15.18,4.01-5.65,7.27-12.21,9.69-19.72,2.26-7,3.82-14.12,4.66-21.26.78-6.74,1.18-18.79,1.18-26.76,0-9.63-.64-18.53-1.9-26.48-1.33-8.44-3.8-16.66-7.31-24.45-3.79-8.36-8.82-15.46-15-21.13-6.18-5.67-14.13-10.25-23.62-13.45-9.07-3.05-19.59-4.7-31.31-4.7h-83.39v336.7h51.36v-142.67ZM373.8,53.81h26.16c9.14,0,21.08.95,26.07,8.01,3.42,4.82,7.49,14.91,7.49,36.84,0,9.24-.59,16.89-1.74,23-1,5.31-4.13,12.93-6.6,17.03-1.9,3.16-11.35,14.98-25.03,14.98h-26.35V53.81Z"/>
  <path class="st0" d="M148.76,1175.88c6.88-4.24,12.52-9.23,16.77-15.19,4.01-5.65,7.27-12.21,9.69-19.72,2.26-7,3.82-14.12,4.66-21.26.78-6.74,1.18-18.79,1.18-26.76,0-9.63-.64-18.53-1.9-26.48-1.33-8.44-3.79-16.66-7.31-24.45-3.79-8.36-8.82-15.46-15-21.13-6.18-5.67-14.13-11.06-23.62-14.26-9.06-3.05-19.6-5.51-31.3-5.51H19.97v336.7h48.51v-142.67h31.16l37.49,142.67h48.35l-45.03-158.41c2.91-1.21,5.68-1.92,8.31-3.54ZM127.87,1116.25c-1,5.31-4.13,13.55-6.6,17.65-1.9,3.16-11.35,15.6-25.03,15.6h-27.76v-99.87h27.57c9.14,0,21.08.32,26.07,7.38,3.42,4.82,7.48,14.6,7.48,36.54,0,9.24-.58,16.58-1.74,22.69Z"/>
  <path class="st0" d="M24.21,302.27c3.8,9.84,9.03,18.23,15.37,24.94,6.51,6.89,14.88,12.36,24.81,16.24,9.63,3.76,20.81,5.67,33.18,5.67,13.51,0,25.5-5.48,35.94-12.11.38-.28.76-.54,1.14-.82l.69.09c18.25-11.89,41.55-34.14,41.55-71.33v-105.57h-85.6s0,45.65,0,45.65h37.09v38.93c0,11.12-.62,20.73-1.96,28.56-1.24,7.17-3.27,13.54-6.09,18.91-2.18,4.15-5.08,7.11-8.91,9.08-4.38,2.25-5.52,3.39-12.47,3.39-7.78,0-14.12-1.22-18.88-3.62-4.18-2.12-7.35-5.26-9.68-9.61-2.97-5.53-6.15-11.98-7.38-19.17-1.36-7.88-3.1-17.59-3.1-28.86V106.11c0-8.91,1.44-16.75,2.18-23.32.69-6.13,2.52-12.08,4.4-17.71,1.58-4.74,3.87-8.54,6.31-11.3,2.27-2.58,5.48-4.64,9.53-6.3,4.28-1.76,9.77-2.65,16.22-2.65,17,0,23.48,6.06,26.24,10.62,3.86,6.4,9.31,19.64,9.31,46.48v26.11h45.65v-24.79c0-32.19-6.41-56.47-18.18-74.21C148.77,9.77,127.43,0,98.8,0c-12.38,0-23.7,1.77-33.32,5.29-10,3.66-18.5,8.89-25.1,15.55-6.42,6.48-11.72,14.63-15.69,24.21-3.71,9-6.65,18.72-8.06,28.89-1.35,9.67-2.37,20.74-2.37,32.92v133.14c0,12.18,1,23.31,2.35,33.08,1.4,10.24,4.07,20.06,7.6,29.19Z"/>
  <path class="st0" d="M625.41,1001.13h-32.33l-56.78,336.7h45.9l15.48-77.04h44.03l14.95,77.04h46.35l-52.73-336.7h-24.87ZM605.64,1217.99l13.98-107.01,14.17,107.01h-28.15Z"/>
  <path class="st0" d="M566.48,518.91h-155.68l1.74-13.24c.44-1.39.74-2.84.74-4.37,0-8.11-6.58-14.68-14.68-14.68-1.73,0-3.36.35-4.9.9h-82.29c-1.54-.55-3.17-.9-4.9-.9-8.1,0-14.68,6.57-14.68,14.68,0,1.22.19,2.38.47,3.51l1.89,14.1h-152.69c-60.22,0-141.49,62.78-141.49,127.05v127.98c0,55.75,46.67,90.27,89.64,90.27,11.44,0,21.06-9.28,21.06-20.72s-8.94-20.72-20.38-20.72c-19.32,0-47.52-15.52-47.52-48.82v-127.98c0-39.71,59.42-84.25,98.69-84.25h158.42l5.78,43.18c0,.2-.06.38-.06.58,0,8.11,6.57,14.68,14.68,14.68,2.19,0,4.25-.51,6.12-1.38h4.56v222.57h48.51v-222.21c1.64.63,3.41,1.02,5.28,1.02,7.97,0,14.44-6.37,14.64-14.3l5.78-44.14h161.28c38.36,0,98.37,44.53,98.37,84.25v127.98c0,33.3-29.22,48.82-48.54,48.82-11.44,0-21.36,9.28-21.36,20.72s9.2,20.72,20.65,20.72c42.97,0,89.2-34.51,89.2-90.27v-127.98c0-64.26-79.08-127.05-138.31-127.05Z"/>
</svg>
