<?xml version="1.0" encoding="UTF-8"?>
<svg id="Layer_1" xmlns="http://www.w3.org/2000/svg" version="1.1" viewBox="0 0 704.8 377.59">
  <!-- Generator: Adobe Illustrator 30.0.0, SVG Export Plug-In . SVG Version: 2.1.1 Build 123)  -->
  <defs>
    <style>
      .st0 {
        fill: #231f20;
      }
    </style>
  </defs>
  <path class="st0" d="M566.47,32.29h-155.68l1.74-13.24c.44-1.39.74-2.84.74-4.37,0-8.11-6.58-14.68-14.68-14.68-1.73,0-3.36.35-4.9.9h-82.29c-1.54-.55-3.17-.9-4.9-.9-8.1,0-14.68,6.57-14.68,14.68,0,1.22.19,2.38.47,3.51l1.89,14.1h-152.69C81.27,32.29,0,95.07,0,159.34v127.98c0,55.75,46.67,90.27,89.64,90.27,11.44,0,21.06-9.28,21.06-20.72s-8.94-20.72-20.38-20.72c-19.32,0-47.52-15.52-47.52-48.82v-127.98c0-39.71,59.42-84.25,98.69-84.25h158.42l5.78,43.18c0,.2-.06.38-.06.58,0,8.11,6.57,14.68,14.68,14.68,2.19,0,4.25-.51,6.12-1.38h4.56v222.57h48.51v-222.21c1.64.63,3.41,1.02,5.28,1.02,7.97,0,14.44-6.37,14.64-14.3l5.78-44.14h161.28c38.36,0,98.37,44.53,98.37,84.25v127.98c0,33.3-29.22,48.82-48.54,48.82-11.44,0-21.36,9.28-21.36,20.72s9.2,20.72,20.65,20.72c42.97,0,89.2-34.51,89.2-90.27v-127.98c0-64.26-79.08-127.05-138.31-127.05h-.02Z"/>
</svg>